PathFileType	4	(X/Y/Z)	C:\Users\Basilio\Documents\Thesis Gigler\squatting_fais\c3dfiles\076\SLS_front_pre5\markers_experimental.trc
DataRate	CameraRate	NumFrames	NumMarkers	Units	OrigDataRate	OrigDataStartFrame	OrigNumFrames
200.000000	200.000000	4	61	mm	200.000000	1559	1782
Frame#	Time	FHD			LBHD			RBHD			C7			T10			CLAV			LSHO			LUUPA			LMUPA			LDUPA			LLEP			LMEP			LRAD			LUL			LRFIN			RSHO			RUPA1			RMUPA			RDUPA			RLEP			RMEP			RRAD			RUL			RUFIN			LASI			RASI			USACR			LSACR			RSACR			LTHI1			LTHI2			LTHI3			LTHI4			LLFC			LMFC			LTIB1			LTIB2			LTIB3			LTIB4			LLMAL			LMMAL			LHEE			LMT1			LMT2			LMT5			RTHI			RTHI2			RTHI3			RTHI4			RLFC			RMFC			RTIB1			RTIB2			RTIB3			RTIB4			RLMAL			RMMAL			RHEE			RMT1			RMT2			RMT5			
		X1	Y1	Z1	X2	Y2	Z2	X3	Y3	Z3	X4	Y4	Z4	X5	Y5	Z5	X6	Y6	Z6	X7	Y7	Z7	X8	Y8	Z8	X9	Y9	Z9	X10	Y10	Z10	X11	Y11	Z11	X12	Y12	Z12	X13	Y13	Z13	X14	Y14	Z14	X15	Y15	Z15	X16	Y16	Z16	X17	Y17	Z17	X18	Y18	Z18	X19	Y19	Z19	X20	Y20	Z20	X21	Y21	Z21	X22	Y22	Z22	X23	Y23	Z23	X24	Y24	Z24	X25	Y25	Z25	X26	Y26	Z26	X27	Y27	Z27	X28	Y28	Z28	X29	Y29	Z29	X30	Y30	Z30	X31	Y31	Z31	X32	Y32	Z32	X33	Y33	Z33	X34	Y34	Z34	X35	Y35	Z35	X36	Y36	Z36	X37	Y37	Z37	X38	Y38	Z38	X39	Y39	Z39	X40	Y40	Z40	X41	Y41	Z41	X42	Y42	Z42	X43	Y43	Z43	X44	Y44	Z44	X45	Y45	Z45	X46	Y46	Z46	X47	Y47	Z47	X48	Y48	Z48	X49	Y49	Z49	X50	Y50	Z50	X51	Y51	Z51	X52	Y52	Z52	X53	Y53	Z53	X54	Y54	Z54	X55	Y55	Z55	X56	Y56	Z56	X57	Y57	Z57	X58	Y58	Z58	X59	Y59	Z59	X60	Y60	Z60	X61	Y61	Z61	

1560	7.795	-257.4789123535157	1640.8076171875	-1011.234313964844	-374.2575378417969	1577.57666015625	-1138.243896484375	-391.5078125000001	1572.919555664063	-987.864440917969	-433.2603149414064	1444.013427734375	-1059.695190429688	-429.2672729492189	1124.533325195313	-1067.521484375	-294.7864685058594	1378.178588867188	-1057.397338867188	-365.5791625976563	1385.678100585938	-1239.866821289063	-361.3422546386719	1181.120483398438	-1300.955322265625	-325.7790527343751	1156.50439453125	-1277.092407226563	-357.3867492675782	1112.818115234375	-1307.833251953125	-369.9613342285157	1057.55419921875	-1308.394653320313	-401.5066833496095	1044.07373046875	-1234.294555664063	-264.9925537109376	834.180114746094	-1276.869018554688	-304.7128295898438	824.7186279296877	-1328.220947265625	-238.0081634521485	749.5629882812501	-1290.644165039063	-366.1241455078126	1379.198364257813	-885.2813110351565	-400.7548217773439	1180.712768554688	-816.5157470703127	-357.1873779296876	1158.094116210938	-813.201354980469	-396.0637817382814	1110.581665039063	-811.3682861328127	-382.8292236328126	1047.904296875	-808.2978515625002	-378.5419311523438	1034.3115234375	-889.3369140625002	-270.0429687500001	829.402526855469	-801.8325195312502	-329.7298278808594	822.026550292969	-772.3867797851565	-251.9126739501954	759.6866455078126	-766.0710449218751	-246.2947692871094	951.7231445312502	-1154.516235351563	-259.1183471679688	983.856628417969	-941.4502563476565	-424.8643493652345	1016.38427734375	-1056.46923828125	-427.0766906738282	984.1174316406252	-1080.353881835938	-434.309051513672	988.8262939453127	-1024.538452148438	-328.7884216308594	787.0173950195315	-1199.3994140625	-305.1355285644532	706.6043090820314	-1188.3388671875	-255.5001831054688	707.9813842773439	-1178.674072265625	-338.2230834960938	658.3787841796876	-1171.04833984375	-348.1073608398438	500.0281066894532	-1132.55322265625	-310.0751647949219	502.8088684082032	-1019.042358398438	-315.5108642578126	361.5202026367188	-1051.199829101563	-341.7730407714844	303.4530639648438	-1111.844482421875	-310.9858703613282	308.5291748046876	-1076.238891601563	-323.9801635742188	235.8474731445313	-1035.646362304688	-382.8852844238282	105.9401779174805	-1072.63525390625	-355.1382141113282	124.4639358520508	-995.2005004882815	-441.184295654297	96.55420684814456	-1024.581665039063	-239.4979095458985	52.38047409057619	-1005.900756835938	-233.7788391113282	48.65119934082033	-1044.44091796875	-257.5559082031251	42.3053321838379	-1094.430419921875	-166.9323883056641	799.8855590820315	-857.753845214844	-98.93740844726565	797.7066040039065	-867.1926269531252	-82.55041503906251	822.100036621094	-883.427185058594	-54.1190643310547	727.3062744140626	-870.0590820312502	-21.68833160400391	687.1307373046876	-877.344421386719	-16.78075027465821	676.6987915039064	-985.6594848632815	16.96442985534668	555.9165649414064	-889.139831542969	-61.9601402282715	486.3226928710939	-859.5203857421877	-17.18151664733887	477.7814941406251	-870.7009277343752	-11.73526573181153	429.2418212890626	-903.0710449218752	-87.38941955566408	295.6690979003907	-862.8701782226565	-71.6024627685547	309.2297973632813	-945.3306274414065	-152.2904510498047	302.7271118164063	-899.910339355469	20.11365699768067	207.010971069336	-957.0596923828127	34.15850067138673	201.4286651611329	-913.7878417968752	6.801171302795412	186.4103240966797	-859.8164062500002	
1561	7.8	-257.0375061035157	1640.7265625	-1011.157653808594	-373.7898559570313	1577.748901367188	-1138.320190429688	-391.2434997558595	1573.02587890625	-987.9023437500002	-433.0497436523439	1444.120849609375	-1059.831176757813	-429.0929565429689	1124.625732421875	-1067.73486328125	-294.4166259765626	1378.128662109375	-1057.289672851563	-365.1411437988282	1385.725219726563	-1239.901611328125	-360.9678344726563	1181.295654296875	-1301.14794921875	-325.2335815429688	1156.501098632813	-1277.24951171875	-356.9052734375001	1112.92138671875	-1308.023681640625	-369.2219238281251	1057.620727539063	-1308.614990234375	-400.9031372070314	1044.15283203125	-1234.618286132813	-264.0053710937501	834.3513183593752	-1277.377563476563	-303.9264526367188	824.9735107421877	-1328.701293945313	-237.2634582519532	749.7197875976564	-1290.916259765625	-366.0703430175782	1379.248779296875	-885.378845214844	-400.5697326660157	1180.787719726563	-816.5545654296877	-356.9443969726563	1158.226318359375	-813.1506958007815	-395.8019409179689	1110.619506835938	-811.3401489257815	-382.5852661132813	1047.928588867188	-808.2835083007815	-378.1881103515626	1034.189819335938	-889.2862548828127	-269.1286926269532	829.7949829101565	-801.5865478515627	-328.8563537597657	822.1470947265627	-772.2580566406252	-250.8466796875001	760.0857543945314	-765.8286743164064	-246.1886291503907	951.687927246094	-1154.591186523438	-259.2516174316407	983.582214355469	-941.4272460937502	-424.7291259765626	1016.348449707031	-1056.761352539063	-426.8753967285157	984.1800537109377	-1080.598266601563	-434.0676574707032	988.9144287109377	-1024.819458007813	-328.7360229492188	787.085876464844	-1199.637573242188	-305.0820922851563	706.5682983398439	-1188.412353515625	-255.231674194336	707.9031372070314	-1178.6982421875	-338.1929321289063	658.3425292968751	-1171.176513671875	-348.0165405273438	500.0060424804689	-1132.650634765625	-310.0456848144532	502.7781372070314	-1019.144287109375	-315.4655151367188	361.4945983886719	-1051.367065429688	-341.8115844726563	303.4383239746094	-1111.990966796875	-310.8992919921876	308.7539062500001	-1076.125854492188	-323.9851074218751	235.8771362304688	-1035.819946289063	-382.8979492187501	105.8746414184571	-1072.7451171875	-355.1143798828126	124.5258407592774	-995.372009277344	-441.0089721679689	96.45576477050784	-1024.589599609375	-239.8949127197266	52.00109481811525	-1006.189086914063	-233.7205200195313	48.52515792846681	-1044.4716796875	-258.3619995117188	42.69501876831055	-1094.760009765625	-167.6476287841797	798.9983520507815	-857.7022094726565	-99.6348571777344	796.5667114257815	-866.8928222656252	-83.17716217041017	820.9736938476565	-883.273132324219	-55.30537796020509	725.8399047851564	-869.9763793945315	-23.12926483154297	685.6749877929689	-876.854919433594	-17.80710792541504	675.3414306640626	-985.4016113281252	13.86164093017578	553.8856201171876	-888.643981933594	-65.98745727539064	485.5327453613282	-859.0690917968752	-21.27388572692871	476.2929687500001	-870.238220214844	-16.59580993652344	427.7391357421876	-902.6654052734377	-94.06423950195314	295.4400024414063	-862.4034423828127	-77.47220611572267	308.5686035156251	-944.9675903320315	-158.6981201171875	303.9827880859376	-899.510925292969	11.30428218841553	204.0857391357422	-956.478698730469	25.19459915161134	198.0746459960938	-913.0256958007815	-2.709899187088013	183.7487335205078	-859.2507324218752	
1562	7.805000000000001	-256.6544799804688	1640.660888671875	-1011.07275390625	-373.3070983886719	1577.929931640625	-1138.386108398438	-390.996307373047	1573.12841796875	-987.9849853515627	-432.8409423828126	1444.177734375	-1059.992309570313	-428.9060058593751	1124.657104492188	-1067.975952148438	-294.2562866210938	1378.138549804688	-1057.306518554688	-364.5921936035157	1385.69482421875	-1239.967529296875	-360.4057617187501	1181.415405273438	-1301.375732421875	-324.5813903808594	1156.5517578125	-1277.407470703125	-356.4780273437501	1112.955322265625	-1308.243286132813	-368.5040588378907	1057.700439453125	-1308.832763671875	-400.392303466797	1044.052734375	-1234.732299804688	-263.0574951171876	834.5418090820315	-1277.769409179688	-303.0017089843751	824.9739379882815	-1329.030517578125	-236.062728881836	750.5582885742189	-1291.508056640625	-366.0600585937501	1379.325439453125	-885.483581542969	-400.4053649902345	1180.810546875	-816.629089355469	-356.7110290527344	1158.32958984375	-813.140075683594	-395.4940795898439	1110.650024414063	-811.3557739257815	-382.2570495605469	1048.007568359375	-808.2170410156252	-377.7157897949219	1034.294311523438	-889.2454223632815	-268.1313476562501	830.2121582031252	-801.4288330078127	-327.9005737304688	822.2815551757815	-772.0161132812502	-249.7170715332032	760.5873413085939	-765.4144287109376	-245.9945526123047	951.6734008789065	-1154.60791015625	-259.3114318847657	983.3933715820315	-941.3436279296877	-424.6136474609376	1016.509643554688	-1056.994995117188	-426.811737060547	984.2840576171877	-1080.9033203125	-433.9235229492189	988.9193115234377	-1025.184448242188	-328.5451049804688	787.042175292969	-1199.756225585938	-304.9471740722657	706.5614013671876	-1188.580200195313	-255.2449188232422	707.8668823242189	-1178.802001953125	-338.1007690429688	658.3405151367189	-1171.315673828125	-349.3648986816407	500.2962951660157	-1133.032104492188	-310.0987243652344	502.7862854003907	-1019.258972167969	-315.5386047363282	361.5855102539063	-1051.521850585938	-341.7259826660157	303.3973388671876	-1112.16796875	-310.9252929687501	308.7339477539063	-1076.294189453125	-323.9633178710938	235.8698730468751	-1035.971435546875	-382.9797668457032	105.823356628418	-1072.880493164063	-355.0657348632813	124.553207397461	-995.485046386719	-441.0270996093751	96.46022033691409	-1024.629638671875	-239.4818878173829	52.50532150268556	-1005.957458496094	-233.744857788086	48.51223373413087	-1044.503173828125	-258.3866577148438	42.71132278442384	-1094.758178710938	-168.441635131836	798.0794677734377	-857.724792480469	-100.4780349731446	795.203308105469	-866.7739257812502	-83.71380615234376	819.711120605469	-882.9625244140627	-56.4518394470215	724.3150634765626	-869.7155761718752	-24.50359344482423	684.1793823242189	-876.358581542969	-19.73478317260743	673.9404296875001	-985.6604614257815	10.90657138824463	551.9760742187501	-888.2339477539065	-69.92483520507814	484.7932434082032	-858.641784667969	-25.3717155456543	474.7315673828126	-869.624694824219	-21.33285903930664	426.200653076172	-902.1790771484377	-100.8490295410157	295.2576904296876	-861.8785400390627	-83.48657989501955	307.9025878906251	-944.5137329101565	-164.9945983886719	305.4078979492188	-899.2589111328127	2.54046654701233	201.3863525390626	-955.8214111328127	16.13113784790039	194.8745880126954	-912.3775634765627	-12.18986034393311	181.2569122314453	-858.658142089844	
1563	7.81	-256.2337646484376	1640.5361328125	-1011.066528320313	-373.0228271484376	1577.830688476563	-1138.3828125	-390.6160278320314	1573.124877929688	-988.041687011719	-432.6104736328126	1444.288818359375	-1060.113647460938	-428.7432250976564	1124.699829101563	-1068.139038085938	-294.0929870605469	1378.190795898438	-1057.362060546875	-364.3272094726563	1385.831298828125	-1240.078979492188	-359.7124328613282	1181.423828125	-1301.549682617188	-324.0203552246094	1156.690795898438	-1277.494140625	-355.5939636230469	1113.028686523438	-1308.400268554688	-367.9025573730469	1057.788940429688	-1309.04638671875	-399.6779785156251	1044.030029296875	-1234.918823242188	-262.1609497070313	834.781433105469	-1278.095458984375	-301.9978637695313	825.1228027343752	-1329.345458984375	-234.9120178222657	750.7923583984376	-1291.91064453125	-366.0346069335938	1379.357788085938	-885.5649414062502	-400.246795654297	1180.853881835938	-816.637390136719	-356.5238037109376	1158.406372070313	-813.1420898437502	-395.389862060547	1110.661010742188	-811.348571777344	-381.9856262207032	1048.017211914063	-808.1821899414065	-377.2147521972657	1034.184448242188	-889.1964111328127	-267.2771606445313	830.5487060546877	-801.2741699218752	-326.8874206542969	822.5634765625002	-771.7649536132815	-248.5609893798829	761.0922851562501	-765.0842285156251	-245.9141998291016	951.6956787109377	-1154.63525390625	-259.3729553222657	983.171569824219	-941.2554931640627	-424.5519104003907	1016.558044433594	-1057.255004882813	-427.5924377441407	984.737243652344	-1081.120971679688	-433.8238525390626	989.0936279296877	-1025.519287109375	-328.3538513183594	787.0803833007815	-1199.870361328125	-304.9007873535157	706.5921020507814	-1188.65625	-255.3236236572266	707.7985839843751	-1178.939331054688	-338.6432800292969	658.6187133789064	-1171.36962890625	-348.1213684082032	500.0189208984376	-1132.980712890625	-310.0777282714844	502.8222045898439	-1019.418395996094	-315.6030273437501	361.5015258789063	-1051.815673828125	-341.8738098144532	303.3015747070313	-1112.359497070313	-311.0185546875001	308.7585144042969	-1076.499755859375	-323.9736022949219	235.8348999023438	-1036.134765625	-382.9454345703126	105.7813110351563	-1072.97119140625	-355.0726623535157	124.5883407592774	-995.6593017578127	-441.2252197265626	96.51861572265628	-1024.774536132813	-239.9065704345704	52.07335662841798	-1006.163879394531	-233.8854064941407	48.67519378662111	-1044.521240234375	-257.5554199218751	42.29320907592774	-1094.530639648438	-169.2722778320313	797.251403808594	-857.6291503906252	-101.2319488525391	794.0152587890627	-866.5042724609377	-84.33066558837892	818.3233032226565	-882.7042236328127	-57.58742904663087	723.0757446289064	-869.282409667969	-25.90836143493653	682.5186157226564	-876.121276855469	-20.93466949462891	672.1934814453126	-985.2124633789065	7.974850177764894	550.0926513671876	-887.8967895507815	-73.93714904785158	483.972869873047	-858.124206542969	-29.43102073669434	473.472137451172	-869.138122558594	-26.02643013000489	424.6131591796876	-901.7310180664065	-107.6560287475586	295.0608520507813	-861.334655761719	-89.79273986816408	307.3572998046876	-943.9862060546877	-171.2085723876953	306.8111572265626	-898.941101074219	-5.989728450775147	198.6678009033204	-954.8936157226565	7.057419776916506	191.8544158935547	-911.6340332031252	-21.77225685119629	178.8529052734375	-857.9833984375002	
